HIERARCHY
ROOT ui
{
	 OFFSET 0 0 0
	 CHANNELS 3 XPosition YPosition Z Position
	 EndSite
	 {
	 OFFSET 0 -1 0
	 }
}
ROOT li
{
	 OFFSET 0 0 0
	 CHANNELS 3 XPosition YPosition Z Position
	 EndSite
	 {
	 OFFSET 0 -1 0
	 }
}
ROOT ul
{
	 OFFSET 0 0 0
	 CHANNELS 3 XPosition YPosition Z Position
	 EndSite
	 {
	 OFFSET 0 -1 0
	 }
}
ROOT ll
{
	 OFFSET 0 0 0
	 CHANNELS 3 XPosition YPosition Z Position
	 EndSite
	 {
	 OFFSET 0 -1 0
	 }
}
ROOT tt
{
	 OFFSET 0 0 0
	 CHANNELS 3 XPosition YPosition Z Position
	 EndSite
	 {
	 OFFSET 0 -1 0
	 }
}
ROOT tb
{
	 OFFSET 0 0 0
	 CHANNELS 3 XPosition YPosition Z Position
	 EndSite
	 {
	 OFFSET 0 -1 0
	 }
}
ROOT td
{
	 OFFSET 0 0 0
	 CHANNELS 3 XPosition YPosition Z Position
	 EndSite
	 {
	 OFFSET 0 -1 0
	 }
}
ROOT v
{
	 OFFSET 0 0 0
	 CHANNELS 3 XPosition YPosition Z Position
	 EndSite
	 {
	 OFFSET 0 -1 0
	 }
}
ROOT bn
{
	 OFFSET 0 0 0
	 CHANNELS 3 XPosition YPosition Z Position
	 EndSite
	 {
	 OFFSET 0 -1 0
	 }
}
MOTION
Frames: 27
Frame Time: 0.002
0.03825631332397461	0.00915983772277832	0		0.5513424072265625	-2.39669970703125	0		-0.9930580444335938	0.17932351684570313	0		-0.5886416625976563	-2.566777099609375	0		2.09606591796875	-0.26007763671875	0		3.27487353515625	0.38041934204101563	0		4.5208603515625	0.9107846069335938	0		5.9756884765625	0.7726989135742187	0		-0.3669334716796875	5.89770751953125	0		
-0.036906810760498045	0.011364978790283203	0		0.514341064453125	-2.38612353515625	0		-0.9982985229492187	0.1763588409423828	0		-0.55386767578125	-2.5704033203125	0		2.134656494140625	-0.2737493896484375	0		3.278780029296875	0.3863349914550781	0		4.5165478515625	0.9038440551757813	0		5.9755517578125	0.7727039794921875	0		-0.38133065795898435	5.8878974609375	0		
0.04055432891845703	-0.007944952964782715	0		0.5448289794921874	-2.40365185546875	0		-0.9985278930664062	0.17634059143066405	0		-0.5890381469726562	-2.56683984375	0		2.097449462890625	-0.2721483459472656	0		3.278168212890625	0.3633265075683594	0		4.52610009765625	0.8906699829101562	0		5.98596630859375	0.7549624633789063	0		-0.3815687866210937	5.88788037109375	0		
-0.034664165496826174	-0.00469366979598999	0		0.5175792236328125	-2.40219970703125	0		-0.9918900146484375	0.1702340850830078	0		-0.5523305053710937	-2.56844677734375	0		2.135981689453125	-0.28479605102539063	0		3.25279443359375	0.35673748779296877	0		4.5197255859375	0.8837611083984375	0		5.98946435546875	0.7720911254882813	0		-0.38181112670898437	5.88788720703125	0		
0.0440686149597168	-0.003980489015579224	0		0.5541178588867187	-2.411790771484375	0		-1.0571693115234375	0.17134786987304687	0		-0.6076141967773437	-2.566502685546875	0		2.119443115234375	-0.29951699829101563	0		3.29798583984375	0.324980224609375	0		4.523109375	0.8636913452148437	0		5.9892587890625	0.7720618286132812	0		-0.35176348876953123	5.9054150390625	0		
-0.020185325622558595	1.294029951095581E-4	0		0.5578475341796875	-2.407817138671875	0		-0.9825072631835937	0.16915736389160158	0		-0.5329623413085938	-2.56769775390625	0		2.123193359375	-0.2955584716796875	0		3.2860107421875	0.34519110107421874	0		4.5269208984375	0.8706259155273437	0		5.99912890625	0.7872047119140625	0		-0.2338517303466797	5.9145009765625	0		
0.03663985443115234	0.009245991706848145	0		0.5425218505859375	-2.4055078125	0		-0.988754638671875	0.174334228515625	0		-0.6181304321289063	-2.5552119140625	0		2.15268603515625	-0.30601446533203125	0		3.287065185546875	0.3081914367675781	0		4.534263671875	0.850509765625	0		5.9952080078125	0.770045166015625	0		-0.36841458129882815	5.897802734375	0		
-0.03595355987548828	-0.004466988086700439	0		0.540104248046875	-2.407394775390625	0		-0.9931721801757812	0.17050028991699218	0		-0.5486265258789063	-2.562282958984375	0		2.151078857421875	-0.3209371337890625	0		3.29569775390625	0.3070857238769531	0		4.52347265625	0.8237081298828125	0		5.99841650390625	0.75434814453125	0		-0.38189068603515625	5.88611181640625	0		
0.03862774658203125	-0.007610991001129151	0		0.5475114135742187	-2.4184287109375	0		-0.993544677734375	0.17061952209472656	0		-0.6070789794921875	-2.56420263671875	0		2.14661669921875	-0.3257942199707031	0		3.31194140625	0.28386517333984373	0		4.523109375	0.8237506713867188	0		6.00111083984375	0.7698373413085937	0		-0.3963484802246094	5.87645751953125	0		
-0.04657421112060547	0.004929326057434082	0		0.5481121826171875	-2.416329345703125	0		-0.9880236206054688	0.1656588897705078	0		-0.5725685424804687	-2.567653076171875	0		2.126900390625	-0.34438165283203126	0		3.279552734375	0.2844749755859375	0		4.51760791015625	0.816893310546875	0		6.00451416015625	0.7870525512695312	0		-0.36831341552734376	5.8971171875	0		
0.04492583465576172	-4.6244299411773684E-4	0		0.4967467041015625	-2.41034326171875	0		-1.065263916015625	0.17710116577148438	0		-0.6069385986328125	-2.561934326171875	0		2.163436279296875	-0.3468873291015625	0		3.285617919921875	0.253457275390625	0		4.53962841796875	0.782590576171875	0		6.004216796875	0.7871455688476563	0		-0.23631452941894532	5.91605908203125	0		
-0.005495175838470459	0.0015349760055541992	0		0.5440931396484375	-2.42098876953125	0		-1.0016982421875	0.1772093811035156	0		-0.5775751342773437	-2.571262939453125	0		2.15558642578125	-0.3706358947753906	0		3.311306884765625	0.26113641357421874	0		4.52486279296875	0.7629239501953125	0		6.00021630859375	0.7701213989257812	0		-0.383187744140625	5.88666943359375	0		
-0.022913881301879883	0.005000753879547119	0		0.5317061157226562	-2.413614990234375	0		-0.995268310546875	0.17128916931152344	0		-0.5909641723632812	-2.5638564453125	0		2.15204345703125	-0.37443414306640627	0		3.301322021484375	0.23042584228515625	0		4.548064453125	0.7426425170898437	0		5.99486669921875	0.7670294189453125	0		-0.3987235107421875	5.87810888671875	0		
-0.01258287525177002	-0.004981214046478271	0		0.5389867553710938	-2.424554443359375	0		-0.9957660522460937	0.17150363159179688	0		-0.5955667114257812	-2.567580322265625	0		2.14132177734375	-0.38709469604492186	0		3.28969287109375	0.22276515197753907	0		4.54222412109375	0.7218656616210938	0		5.9986474609375	0.746298095703125	0		-0.38399237060546876	5.8870625	0		
-0.013111310005187988	-0.004762519836425781	0		0.49841400146484377	-2.424673095703125	0		-1.061282958984375	0.17282490539550782	0		-0.6063467407226563	-2.58018408203125	0		2.158433837890625	-0.40820419311523437	0		3.327625732421875	0.19028959655761718	0		4.5494697265625	0.7078898315429687	0		6.0010654296875	0.7377677001953125	0		-0.3683081970214844	5.89501708984375	0		
0.04547799301147461	0.0034833409786224367	0		0.5449904174804687	-2.415232666015625	0		-0.9827947387695313	0.17474981689453126	0		-0.6147142944335937	-2.5668076171875	0		2.163757080078125	-0.41509548950195313	0		3.3212099609375	0.19858226013183594	0		4.56357177734375	0.686818603515625	0		6.0006728515625	0.7380407104492187	0		-0.36975143432617186	5.89727490234375	0		
-0.0331192626953125	0.003046107053756714	0		0.513324951171875	-2.418464111328125	0		-0.9933492431640625	0.17618304443359376	0		-0.5885071411132813	-2.577998046875	0		2.14989404296875	-0.4316458435058594	0		3.303069580078125	0.1650880126953125	0		4.558669921875	0.66708984375	0		5.98672607421875	0.7406402587890625	0		-0.3854235229492188	5.8877861328125	0		
0.03820891189575195	-0.0018897639513015747	0		0.5366201171875	-2.42359912109375	0		-0.9939420776367187	0.17646458435058593	0		-0.6240708618164063	-2.574133056640625	0		2.143161865234375	-0.43929232788085937	0		3.321171630859375	0.14701220703125	0		4.568626953125	0.6401376953125	0		5.992482421875	0.706155029296875	0		-0.26779400634765627	5.8970791015625	0		
-0.04142755508422852	-0.0022731029987335203	0		0.511043212890625	-2.4198935546875	0		-0.9927063598632813	0.1677288818359375	0		-0.5799442138671875	-2.5885927734375	0		2.167953369140625	-0.47444921875	0		3.3332041015625	0.1260635528564453	0		4.575310546875	0.598267333984375	0		5.9821806640625	0.7242882080078125	0		-0.25418437194824217	5.90813427734375	0		
0.03289499664306641	-0.005225420951843262	0		0.5451927490234375	-2.432175048828125	0		-0.989272216796875	0.17197276306152343	0		-0.6046863403320313	-2.59387890625	0		2.1552021484375	-0.48094891357421876	0		3.3446201171875	0.12915408325195313	0		4.588560546875	0.5913201904296875	0		5.9854150390625	0.7419259643554688	0		-0.3719766540527344	5.89841015625	0		
-0.03561275100708008	0.004241243839263916	0		0.5128079833984375	-2.415315673828125	0		-0.9958386840820312	0.1774007110595703	0		-0.5812474365234375	-2.587956298828125	0		2.19025830078125	-0.4982318115234375	0		3.342246337890625	0.08649348449707031	0		4.5923212890625	0.5565543823242187	0		5.98495068359375	0.7424613647460937	0		-0.3877789306640625	5.88898974609375	0		
0.03157430839538574	-0.004556169986724853	0		0.5340142211914063	-2.422341064453125	0		-0.9965072631835937	0.17774656677246095	0		-0.6209320678710938	-2.58795556640625	0		2.177220458984375	-0.5196866455078125	0		3.38770556640625	0.09405770874023438	0		4.615044921875	0.5204923706054687	0		5.98078857421875	0.7258865966796875	0		-0.38843771362304685	5.88933447265625	0		
-0.036965770721435545	0.004949618816375732	0		0.5312926635742188	-2.423944091796875	0		-1.0081559448242188	0.18029695129394532	0		-0.5548148803710937	-2.59971484375	0		2.191197265625	-0.5395755004882813	0		3.35547119140625	0.06194178771972656	0		4.609009765625	0.49993572998046876	0		5.97986865234375	0.6642277221679688	0		-0.2567608337402344	5.9094775390625	0		
0.030193304061889647	-0.003807030916213989	0		0.5305895385742188	-2.423560302734375	0		-1.0769267578125	0.17682844543457032	0		-0.6165938720703125	-2.60330224609375	0		2.2022451171875	-0.5543955688476563	0		3.377552734375	0.04893351364135742	0		4.6358056640625	0.46984259033203124	0		5.9807626953125	0.6596196899414063	0		-0.3897935791015625	5.89008544921875	0		
-0.013372831344604492	0.00532189416885376	0		0.517839599609375	-2.424953369140625	0		-1.06765087890625	0.1760726776123047	0		-0.5803348388671875	-2.60451416015625	0		2.19530126953125	-0.5678958129882813	0		3.3934404296875	0.025042463302612304	0		4.63359716796875	0.4402491455078125	0		5.98394482421875	0.6774274291992187	0		-0.3743404846191406	5.89822412109375	0		
0.043853988647460936	0.001776718020439148	0		0.5461349487304688	-2.423015869140625	0		-1.065145751953125	0.18945899963378907	0		-0.6159982299804687	-2.5994912109375	0		2.194582275390625	-0.567483642578125	0		3.40789208984375	0.035191204071044924	0		4.666494140625	0.4170728759765625	0		5.980439453125	0.657446044921875	0		-0.37597348022460936	5.900673828125	0		
-0.014810215950012208	0.006205108165740967	0		0.5324502563476563	-2.4183515625	0		-1.0059420776367187	0.18491600036621095	0		-0.5869268798828124	-2.6095341796875	0		2.19639697265625	-0.5941053466796875	0		3.39336328125	-0.01217361354827881	0		4.66630517578125	0.3894535217285156	0		5.9769521484375	0.6409156494140625	0		-0.3917874755859375	5.89138525390625	0		
